# Blender v2.80 (sub 75) OBJ File: 'Dice_Set.blend'
# www.blender.org
mtllib D12.mtl
o Dodecahedron_2In.002
v -0.213224 -0.287623 -0.064808
v -0.210595 -0.287623 -0.072899
v -0.206342 -0.292095 -0.067045
v -0.212790 -0.288196 -0.069140
v -0.210933 -0.290324 -0.068536
v -0.208805 -0.290786 -0.070435
v -0.210327 -0.290786 -0.065750
v -0.004253 -0.287623 -0.222815
v 0.004253 -0.287623 -0.222815
v 0.000000 -0.292095 -0.216961
v 0.000000 -0.288196 -0.223741
v 0.000000 -0.290324 -0.221788
v 0.002463 -0.290786 -0.220351
v -0.002463 -0.290786 -0.220351
v -0.134408 -0.287623 0.177761
v -0.127526 -0.292095 0.175525
v -0.127526 -0.287623 0.182761
v -0.131512 -0.290786 0.176820
v -0.130364 -0.290324 0.179430
v -0.127526 -0.290786 0.179715
v -0.131512 -0.288196 0.181010
v 0.210595 -0.287623 -0.072899
v 0.213224 -0.287623 -0.064808
v 0.206342 -0.292095 -0.067045
v 0.212790 -0.288196 -0.069140
v 0.210933 -0.290324 -0.068536
v 0.210327 -0.290786 -0.065750
v 0.208805 -0.290786 -0.070435
v 0.127526 -0.287623 0.182761
v 0.127526 -0.292095 0.175525
v 0.134408 -0.287623 0.177761
v 0.127526 -0.290786 0.179715
v 0.130364 -0.290324 0.179430
v 0.131512 -0.290786 0.176820
v 0.131512 -0.288196 0.181010
v 0.004253 0.070663 0.356904
v -0.004253 0.070663 0.356904
v 0.000000 0.063427 0.358286
v 0.000000 0.071235 0.357830
v 0.000000 0.068536 0.358860
v -0.002463 0.067045 0.358630
v 0.002463 0.067045 0.358630
v 0.206342 -0.070663 0.291241
v 0.213224 -0.070663 0.286241
v 0.210595 -0.063426 0.289859
v 0.210327 -0.071235 0.289491
v 0.210933 -0.068536 0.290324
v 0.212790 -0.067045 0.288690
v 0.208805 -0.067045 0.291586
v 0.338121 0.070663 0.114334
v 0.340750 0.063427 0.110716
v 0.340750 0.070663 0.106244
v 0.340317 0.067045 0.113165
v 0.341297 0.068536 0.110894
v 0.341839 0.067045 0.108480
v 0.340317 0.071235 0.110576
v 0.000000 -0.063427 -0.358286
v 0.004253 -0.070663 -0.356904
v -0.004253 -0.070663 -0.356904
v 0.002463 -0.067045 -0.358630
v 0.000000 -0.068536 -0.358860
v 0.000000 -0.071235 -0.357830
v -0.002463 -0.067045 -0.358630
v -0.206342 0.070663 -0.291241
v -0.210595 0.063427 -0.289859
v -0.213224 0.070663 -0.286241
v -0.208805 0.067045 -0.291586
v -0.210933 0.068536 -0.290324
v -0.212790 0.067045 -0.288690
v -0.210327 0.071235 -0.289491
v -0.340750 -0.063427 -0.110716
v -0.338121 -0.070663 -0.114334
v -0.340750 -0.070663 -0.106244
v -0.340317 -0.067045 -0.113165
v -0.341297 -0.068536 -0.110894
v -0.340317 -0.071235 -0.110576
v -0.341839 -0.067045 -0.108480
v 0.206342 0.070663 -0.291241
v 0.213224 0.070663 -0.286241
v 0.210595 0.063427 -0.289859
v 0.210327 0.071235 -0.289491
v 0.210933 0.068536 -0.290324
v 0.212790 0.067045 -0.288690
v 0.208805 0.067045 -0.291586
v 0.340750 -0.063427 -0.110716
v 0.340750 -0.070663 -0.106244
v 0.338121 -0.070663 -0.114334
v 0.341839 -0.067045 -0.108480
v 0.341297 -0.068536 -0.110894
v 0.340317 -0.071235 -0.110576
v 0.340317 -0.067045 -0.113165
v -0.338121 0.070663 0.114334
v -0.340750 0.070663 0.106244
v -0.340750 0.063427 0.110716
v -0.340317 0.071235 0.110576
v -0.341297 0.068536 0.110894
v -0.341839 0.067045 0.108480
v -0.340317 0.067045 0.113165
v -0.213224 -0.070663 0.286241
v -0.206342 -0.070663 0.291241
v -0.210595 -0.063426 0.289859
v -0.210327 -0.071235 0.289491
v -0.210933 -0.068536 0.290324
v -0.208805 -0.067045 0.291586
v -0.212790 -0.067045 0.288690
v -0.004253 0.287623 0.222815
v 0.004253 0.287623 0.222815
v 0.000000 0.292095 0.216961
v 0.000000 0.288196 0.223741
v 0.000000 0.290324 0.221788
v 0.002463 0.290786 0.220351
v -0.002463 0.290786 0.220351
v 0.134408 0.287623 -0.177761
v 0.127526 0.287623 -0.182761
v 0.127526 0.292095 -0.175525
v 0.131512 0.288196 -0.181010
v 0.130364 0.290324 -0.179430
v 0.127526 0.290786 -0.179715
v 0.131512 0.290786 -0.176820
v -0.210595 0.287623 0.072899
v -0.206342 0.292095 0.067045
v -0.213224 0.287623 0.064808
v -0.208805 0.290786 0.070435
v -0.210933 0.290324 0.068536
v -0.210327 0.290786 0.065750
v -0.212790 0.288196 0.069140
v -0.127526 0.292095 -0.175525
v -0.127526 0.287623 -0.182761
v -0.134408 0.287623 -0.177761
v -0.127526 0.290786 -0.179715
v -0.130364 0.290324 -0.179430
v -0.131512 0.288196 -0.181010
v -0.131512 0.290786 -0.176820
v 0.206342 0.292095 0.067045
v 0.210595 0.287623 0.072899
v 0.213224 0.287623 0.064808
v 0.208805 0.290786 0.070435
v 0.210933 0.290324 0.068536
v 0.212790 0.288196 0.069140
v 0.210327 0.290786 0.065750
vt 0.332351 0.745098
vt 0.489924 0.745098
vt 0.538616 0.894958
vt 0.411137 0.987577
vt 0.283659 0.894958
vt 0.848981 0.287105
vt 0.721502 0.194486
vt 0.770194 0.044626
vt 0.927767 0.044626
vt 0.976459 0.194486
vt 0.427734 0.494618
vt 0.300256 0.401999
vt 0.348948 0.252139
vt 0.506521 0.252139
vt 0.555213 0.401999
vt 0.405836 0.168908
vt 0.278357 0.261527
vt 0.150878 0.168908
vt 0.199571 0.019048
vt 0.357143 0.019048
vt 0.977839 0.679063
vt 0.850360 0.771681
vt 0.722881 0.679063
vt 0.771574 0.529202
vt 0.929146 0.529202
vt 0.759734 0.746648
vt 0.808426 0.896508
vt 0.680947 0.989127
vt 0.553469 0.896509
vt 0.602161 0.746648
vt 0.622907 0.504399
vt 0.671599 0.654259
vt 0.544121 0.746878
vt 0.416642 0.654260
vt 0.465335 0.504399
vt 0.699779 0.174325
vt 0.572300 0.266944
vt 0.444821 0.174325
vt 0.493514 0.024465
vt 0.651086 0.024465
vt 0.148728 0.498850
vt 0.021250 0.406231
vt 0.069942 0.256371
vt 0.227515 0.256371
vt 0.276207 0.406231
vt 0.408096 0.651150
vt 0.280617 0.743769
vt 0.153138 0.651150
vt 0.201831 0.501290
vt 0.359403 0.501290
vt 0.269687 0.888749
vt 0.142208 0.981367
vt 0.014729 0.888749
vt 0.063422 0.738888
vt 0.220994 0.738888
vt 0.635048 0.292230
vt 0.632110 0.291276
vt 0.632652 0.289609
vt 0.635048 0.289141
vt 0.489924 0.742009
vt 0.491677 0.742009
vt 0.492862 0.744143
vt 0.279145 0.405276
vt 0.279687 0.406944
vt 0.278023 0.408730
vt 0.329413 0.744143
vt 0.329955 0.742476
vt 0.332351 0.742009
vt 0.506521 0.249050
vt 0.508273 0.249050
vt 0.509458 0.251184
vt 0.150544 0.501349
vt 0.149126 0.502379
vt 0.146913 0.501349
vt 0.792621 0.292230
vt 0.792621 0.289141
vt 0.794374 0.289141
vt 0.795558 0.291276
vt 0.227515 0.253282
vt 0.229268 0.253282
vt 0.230452 0.255416
vt 0.196633 0.018093
vt 0.197175 0.016426
vt 0.199571 0.015959
vt 0.346010 0.251184
vt 0.346552 0.249517
vt 0.348948 0.249050
vt 0.759734 0.743559
vt 0.761486 0.743559
vt 0.762671 0.745694
vt 0.019434 0.408730
vt 0.018016 0.407700
vt 0.018312 0.405276
vt 0.357143 0.015959
vt 0.358896 0.015959
vt 0.360081 0.018093
vt 0.067004 0.255416
vt 0.067546 0.253749
vt 0.069942 0.253282
vt 0.599223 0.745694
vt 0.599765 0.744026
vt 0.602161 0.743559
vt 0.272625 0.887794
vt 0.273166 0.889461
vt 0.271502 0.891248
vt 0.719686 0.196985
vt 0.718268 0.195955
vt 0.718564 0.193532
vt 0.280173 0.264026
vt 0.278755 0.265056
vt 0.276541 0.264026
vt 0.408774 0.167953
vt 0.409315 0.169620
vt 0.407652 0.171407
vt 0.551653 0.899007
vt 0.550235 0.897977
vt 0.550531 0.895554
vt 0.144024 0.983866
vt 0.142605 0.984897
vt 0.140392 0.983866
vt 0.012914 0.891248
vt 0.011495 0.890217
vt 0.011791 0.887794
vt 0.682763 0.991626
vt 0.681345 0.992657
vt 0.679132 0.991626
vt 0.980777 0.678108
vt 0.981318 0.679775
vt 0.979654 0.681562
vt 0.574116 0.269443
vt 0.572698 0.270473
vt 0.570484 0.269443
vt 0.558151 0.401045
vt 0.558693 0.402712
vt 0.557029 0.404498
vt 0.281843 0.897457
vt 0.280425 0.896427
vt 0.280721 0.894004
vt 0.443006 0.176824
vt 0.441587 0.175794
vt 0.441883 0.173370
vt 0.412953 0.990076
vt 0.411535 0.991106
vt 0.409322 0.990076
vt 0.674537 0.653305
vt 0.675079 0.654972
vt 0.673415 0.656758
vt 0.545936 0.749377
vt 0.544518 0.750408
vt 0.542305 0.749377
vt 0.541554 0.894004
vt 0.542096 0.895671
vt 0.540432 0.897457
vt 0.586356 0.442091
vt 0.584540 0.444590
vt 0.583122 0.443559
vt 0.583418 0.441136
vt 0.702717 0.173370
vt 0.703258 0.175037
vt 0.701594 0.176824
vt 0.721066 0.681562
vt 0.719647 0.680531
vt 0.719943 0.678108
vt 0.429550 0.497117
vt 0.428132 0.498147
vt 0.425919 0.497117
vt 0.852176 0.774180
vt 0.850757 0.775211
vt 0.848544 0.774180
vt 0.811364 0.895554
vt 0.811906 0.897221
vt 0.810242 0.899008
vt 0.298440 0.404498
vt 0.297022 0.403468
vt 0.297318 0.401045
vt 0.979397 0.193532
vt 0.979939 0.195199
vt 0.978275 0.196985
vt 0.414826 0.656759
vt 0.413408 0.655728
vt 0.413704 0.653305
vt 0.713834 0.534709
vt 0.715650 0.537208
vt 0.714232 0.538239
vt 0.712019 0.537208
vt 0.841313 0.442091
vt 0.844251 0.441136
vt 0.844793 0.442803
vt 0.843129 0.444590
vt 0.149063 0.171407
vt 0.147644 0.170377
vt 0.147941 0.167953
vt 0.850796 0.289604
vt 0.849378 0.290634
vt 0.847165 0.289604
vt 0.767256 0.043671
vt 0.767798 0.042004
vt 0.770194 0.041537
vt 0.220994 0.735799
vt 0.222747 0.735799
vt 0.223932 0.737934
vt 0.282432 0.746268
vt 0.281014 0.747298
vt 0.278801 0.746268
vt 0.768636 0.528248
vt 0.769178 0.526581
vt 0.771574 0.526113
vt 0.651086 0.021375
vt 0.652839 0.021375
vt 0.654024 0.023510
vt 0.198893 0.500335
vt 0.199434 0.498668
vt 0.201831 0.498201
vt 0.927767 0.041537
vt 0.929520 0.041537
vt 0.930705 0.043672
vt 0.411033 0.650196
vt 0.411575 0.651863
vt 0.409911 0.653649
vt 0.462397 0.503445
vt 0.462938 0.501778
vt 0.465335 0.501310
vt 0.359403 0.498201
vt 0.361156 0.498201
vt 0.362341 0.500335
vt 0.490576 0.023510
vt 0.491118 0.021843
vt 0.493514 0.021376
vt 0.622907 0.501310
vt 0.624660 0.501310
vt 0.625845 0.503445
vt 0.151322 0.653649
vt 0.149904 0.652619
vt 0.150200 0.650196
vt 0.060484 0.737934
vt 0.061026 0.736267
vt 0.063422 0.735799
vt 0.929146 0.526113
vt 0.930899 0.526113
vt 0.932084 0.528248
vn -0.5257 -0.4472 -0.7236
vn -0.5257 0.4472 0.7236
vn 0.5257 -0.4472 -0.7236
vn 0.0000 -0.4472 0.8944
vn 0.8507 0.4472 -0.2764
vn 0.8507 -0.4472 0.2764
vn -0.8507 0.4472 -0.2764
vn 0.0000 0.4472 -0.8944
vn 0.0000 -1.0000 0.0000
vn 0.0000 1.0000 0.0000
vn 0.5257 0.4472 0.7236
vn -0.7426 -0.6691 0.0284
vn -0.5841 -0.6691 -0.4595
vn -0.3276 -0.9388 -0.1064
vn -0.2565 -0.6691 -0.6975
vn 0.2565 -0.6691 -0.6975
vn 0.0000 -0.9388 -0.3444
vn -0.6175 -0.6691 0.4135
vn -0.2025 -0.9388 0.2787
vn -0.2025 -0.6691 0.7151
vn 0.5841 -0.6691 -0.4595
vn 0.7426 -0.6691 0.0284
vn 0.3276 -0.9388 -0.1064
vn 0.2025 -0.6691 0.7151
vn 0.2025 -0.9388 0.2787
vn 0.6175 -0.6691 0.4135
vn 0.2565 0.3246 0.9104
vn -0.2565 0.3246 0.9104
vn 0.0000 -0.1118 0.9937
vn 0.3276 -0.3246 0.8873
vn 0.7426 -0.3246 0.5858
vn 0.5841 0.1118 0.8040
vn 0.7866 0.3246 0.5253
vn 0.9451 -0.1117 0.3071
vn 0.9451 0.3246 0.0374
vn 0.0000 0.1118 -0.9937
vn 0.2565 -0.3246 -0.9104
vn -0.2565 -0.3246 -0.9104
vn -0.3276 0.3246 -0.8873
vn -0.5841 -0.1118 -0.8039
vn -0.7426 0.3246 -0.5858
vn -0.9451 0.1117 -0.3071
vn -0.7866 -0.3246 -0.5253
vn -0.9451 -0.3246 -0.0374
vn 0.3276 0.3246 -0.8873
vn 0.7426 0.3246 -0.5858
vn 0.5841 -0.1118 -0.8040
vn 0.9451 0.1117 -0.3071
vn 0.9451 -0.3246 -0.0374
vn 0.7866 -0.3246 -0.5253
vn -0.7866 0.3246 0.5253
vn -0.9451 0.3246 0.0374
vn -0.9451 -0.1117 0.3071
vn -0.7426 -0.3247 0.5858
vn -0.3276 -0.3246 0.8873
vn -0.5841 0.1117 0.8039
vn -0.2565 0.6691 0.6975
vn 0.2565 0.6691 0.6975
vn 0.0000 0.9388 0.3445
vn 0.6175 0.6691 -0.4135
vn 0.2025 0.6691 -0.7151
vn 0.2025 0.9388 -0.2787
vn -0.5841 0.6691 0.4595
vn -0.3276 0.9388 0.1064
vn -0.7426 0.6691 -0.0284
vn -0.2025 0.9388 -0.2787
vn -0.2025 0.6691 -0.7151
vn -0.6175 0.6691 -0.4135
vn 0.3276 0.9388 0.1064
vn 0.5841 0.6691 0.4595
vn 0.7426 0.6691 -0.0284
vn -0.2837 -0.9545 0.0922
vn -0.6850 -0.6937 0.2226
vn -0.4234 -0.6937 -0.5827
vn -0.1754 -0.9545 -0.2414
vn 0.4234 -0.6937 -0.5827
vn 0.1754 -0.9545 -0.2414
vn 0.0000 -0.9545 0.2984
vn 0.0000 -0.6937 0.7203
vn 0.6850 -0.6937 0.2226
vn 0.2837 -0.9545 0.0922
vn 0.1754 -0.2110 0.9616
vn 0.4234 0.2110 0.8811
vn 0.8604 -0.2110 0.4639
vn 0.7071 0.2110 0.6749
vn -0.4234 -0.2110 -0.8811
vn -0.1754 0.2110 -0.9616
vn -0.2480 -0.5093 -0.8241
vn 0.2480 -0.5093 -0.8241
vn -0.7071 -0.2110 -0.6749
vn -0.8604 0.2110 -0.4639
vn -0.8604 -0.5093 -0.0188
vn -0.7071 -0.5093 -0.4905
vn 0.1754 0.2110 -0.9616
vn 0.4234 -0.2110 -0.8811
vn 0.8604 0.2110 -0.4639
vn 0.7071 -0.2110 -0.6749
vn 0.7071 -0.5093 -0.4905
vn 0.8604 -0.5093 -0.0188
vn -0.8604 -0.2110 0.4639
vn -0.7071 0.2110 0.6749
vn -0.4234 0.2110 0.8811
vn -0.1754 -0.2110 0.9616
vn 0.2480 0.5093 0.8241
vn -0.2480 0.5093 0.8241
vn 0.6850 -0.5093 0.5209
vn 0.2837 -0.5093 0.8125
vn -0.2838 -0.5093 0.8125
vn -0.6850 -0.5093 0.5209
vn 0.9688 -0.2110 0.1304
vn 0.9688 0.2110 -0.1304
vn 0.2837 0.5093 -0.8125
vn 0.6850 0.5093 -0.5209
vn -0.9688 -0.2110 0.1304
vn -0.9688 0.2110 -0.1304
vn -0.7071 0.5093 0.4905
vn -0.8604 0.5093 0.0188
vn -0.2837 0.9545 -0.0922
vn -0.6850 0.6937 -0.2226
vn -0.6850 0.5093 -0.5209
vn -0.2838 0.5093 -0.8125
vn 0.4234 0.6937 0.5827
vn 0.1754 0.9545 0.2414
vn 0.7071 0.5093 0.4905
vn 0.8604 0.5093 0.0188
vn -0.4234 0.6937 0.5827
vn -0.1754 0.9545 0.2414
vn 0.0000 0.6937 -0.7203
vn 0.0000 0.9545 -0.2984
vn 0.6850 0.6937 -0.2226
vn 0.2837 0.9545 -0.0922
vn -0.8507 -0.4472 0.2764
usemtl Material.002
s off
f 8/1/1 2/2/1 72/3/1 65/4/1 59/5/1
f 101/6/2 37/7/2 106/8/2 120/9/2 92/10/2
f 80/11/3 87/12/3 22/13/3 9/14/3 58/15/3
f 43/16/4 38/17/4 100/18/4 17/19/4 29/20/4
f 52/21/5 85/22/5 79/23/5 113/24/5 136/25/5
f 23/26/6 86/27/6 51/28/6 44/29/6 31/30/6
f 129/31/7 66/32/7 71/33/7 93/34/7 122/35/7
f 78/36/8 57/37/8 64/38/8 128/39/8 114/40/8
f 10/41/9 24/42/9 30/43/9 16/44/9 3/45/9
f 121/46/10 108/47/10 134/48/10 115/49/10 127/50/10
f 36/51/11 45/52/11 50/53/11 135/54/11 107/55/11
f 1/56/12 4/57/12 5/58/12 7/59/12
f 2/2/13 6/60/13 5/61/13 4/62/13
f 3/45/14 7/63/14 5/64/14 6/65/14
f 8/1/15 11/66/15 12/67/15 14/68/15
f 9/14/16 13/69/16 12/70/16 11/71/16
f 10/41/17 14/72/17 12/73/17 13/74/17
f 15/75/18 18/76/18 19/77/18 21/78/18
f 16/44/19 20/79/19 19/80/19 18/81/19
f 17/19/20 21/82/20 19/83/20 20/84/20
f 22/13/21 25/85/21 26/86/21 28/87/21
f 23/26/22 27/88/22 26/89/22 25/90/22
f 24/42/23 28/91/23 26/92/23 27/93/23
f 29/20/24 32/94/24 33/95/24 35/96/24
f 30/43/25 34/97/25 33/98/25 32/99/25
f 31/30/26 35/100/26 33/101/26 34/102/26
f 36/51/27 39/103/27 40/104/27 42/105/27
f 37/7/28 41/106/28 40/107/28 39/108/28
f 38/17/29 42/109/29 40/110/29 41/111/29
f 43/16/30 46/112/30 47/113/30 49/114/30
f 44/29/31 48/115/31 47/116/31 46/117/31
f 45/52/32 49/118/32 47/119/32 48/120/32
f 50/53/33 53/121/33 54/122/33 56/123/33
f 51/28/34 55/124/34 54/125/34 53/126/34
f 52/21/35 56/127/35 54/128/35 55/129/35
f 57/37/36 60/130/36 61/131/36 63/132/36
f 58/15/37 62/133/37 61/134/37 60/135/37
f 59/5/38 63/136/38 61/137/38 62/138/38
f 64/38/39 67/139/39 68/140/39 70/141/39
f 65/4/40 69/142/40 68/143/40 67/144/40
f 66/32/41 70/145/41 68/146/41 69/147/41
f 71/33/42 74/148/42 75/149/42 77/150/42
f 72/3/43 76/151/43 75/152/43 74/153/43
f 73/154/44 77/155/44 75/156/44 76/157/44
f 78/36/45 81/158/45 82/159/45 84/160/45
f 79/23/46 83/161/46 82/162/46 81/163/46
f 80/11/47 84/164/47 82/165/47 83/166/47
f 85/22/48 88/167/48 89/168/48 91/169/48
f 86/27/49 90/170/49 89/171/49 88/172/49
f 87/12/50 91/173/50 89/174/50 90/175/50
f 92/10/51 95/176/51 96/177/51 98/178/51
f 93/34/52 97/179/52 96/180/52 95/181/52
f 94/182/53 98/183/53 96/184/53 97/185/53
f 99/186/54 102/187/54 103/188/54 105/189/54
f 100/18/55 104/190/55 103/191/55 102/192/55
f 101/6/56 105/193/56 103/194/56 104/195/56
f 106/8/57 109/196/57 110/197/57 112/198/57
f 107/55/58 111/199/58 110/200/58 109/201/58
f 108/47/59 112/202/59 110/203/59 111/204/59
f 113/24/60 116/205/60 117/206/60 119/207/60
f 114/40/61 118/208/61 117/209/61 116/210/61
f 115/49/62 119/211/62 117/212/62 118/213/62
f 120/9/63 123/214/63 124/215/63 126/216/63
f 121/46/64 125/217/64 124/218/64 123/219/64
f 122/35/65 126/220/65 124/221/65 125/222/65
f 127/50/66 130/223/66 131/224/66 133/225/66
f 128/39/67 132/226/67 131/227/67 130/228/67
f 129/31/68 133/229/68 131/230/68 132/231/68
f 134/48/69 137/232/69 138/233/69 140/234/69
f 135/54/70 139/235/70 138/236/70 137/237/70
f 136/25/71 140/238/71 138/239/71 139/240/71
f 3/45/72 16/44/72 18/81/72 7/63/72
f 7/59/73 18/76/73 15/75/73 1/56/73
f 2/2/74 8/1/74 14/68/74 6/60/74
f 6/65/75 14/72/75 10/41/75 3/45/75
f 9/14/76 22/13/76 28/87/76 13/69/76
f 13/74/77 28/91/77 24/42/77 10/41/77
f 16/44/78 30/43/78 32/99/78 20/79/78
f 20/84/79 32/94/79 29/20/79 17/19/79
f 23/26/80 31/30/80 34/102/80 27/88/80
f 27/93/81 34/97/81 30/43/81 24/42/81
f 38/17/82 43/16/82 49/114/82 42/109/82
f 42/105/83 49/118/83 45/52/83 36/51/83
f 44/29/84 51/28/84 53/126/84 48/115/84
f 48/120/85 53/121/85 50/53/85 45/52/85
f 59/5/86 65/4/86 67/144/86 63/136/86
f 63/132/87 67/139/87 64/38/87 57/37/87
f 8/1/88 59/5/88 62/138/88 11/66/88
f 11/71/89 62/133/89 58/15/89 9/14/89
f 65/4/90 72/3/90 74/153/90 69/142/90
f 69/147/91 74/148/91 71/33/91 66/32/91
f 1/56/92 73/154/92 76/157/92 4/57/92
f 4/62/93 76/151/93 72/3/93 2/2/93
f 57/37/94 78/36/94 84/160/94 60/130/94
f 60/135/95 84/164/95 80/11/95 58/15/95
f 79/23/96 85/22/96 91/169/96 83/161/96
f 83/166/97 91/173/97 87/12/97 80/11/97
f 22/13/98 87/12/98 90/175/98 25/85/98
f 25/90/99 90/170/99 86/27/99 23/26/99
f 94/182/100 99/186/100 105/189/100 98/183/100
f 98/178/101 105/193/101 101/6/101 92/10/101
f 37/7/102 101/6/102 104/195/102 41/106/102
f 41/111/103 104/190/103 100/18/103 38/17/103
f 36/51/104 107/55/104 109/201/104 39/103/104
f 39/108/105 109/196/105 106/8/105 37/7/105
f 31/30/106 44/29/106 46/117/106 35/100/106
f 35/96/107 46/112/107 43/16/107 29/20/107
f 17/19/108 100/18/108 102/192/108 21/82/108
f 21/78/109 102/187/109 99/186/109 15/75/109
f 51/28/110 86/27/110 88/172/110 55/124/110
f 55/129/111 88/167/111 85/22/111 52/21/111
f 78/36/112 114/40/112 116/210/112 81/158/112
f 81/163/113 116/205/113 113/24/113 79/23/113
f 73/154/114 94/182/114 97/185/114 77/155/114
f 77/150/115 97/179/115 93/34/115 71/33/115
f 92/10/116 120/9/116 126/216/116 95/176/116
f 95/181/117 126/220/117 122/35/117 93/34/117
f 121/46/118 127/50/118 133/225/118 125/217/118
f 125/222/119 133/229/119 129/31/119 122/35/119
f 66/32/120 129/31/120 132/231/120 70/145/120
f 70/141/121 132/226/121 128/39/121 64/38/121
f 107/55/122 135/54/122 137/237/122 111/199/122
f 111/204/123 137/232/123 134/48/123 108/47/123
f 135/54/124 50/53/124 56/123/124 139/235/124
f 139/240/125 56/127/125 52/21/125 136/25/125
f 120/9/126 106/8/126 112/198/126 123/214/126
f 123/219/127 112/202/127 108/47/127 121/46/127
f 114/40/128 128/39/128 130/228/128 118/208/128
f 118/213/129 130/223/129 127/50/129 115/49/129
f 136/25/130 113/24/130 119/207/130 140/238/130
f 140/234/131 119/211/131 115/49/131 134/48/131
f 1/56/132 15/75/132 99/186/132 94/182/132 73/154/132
