# Blender v2.80 (sub 75) OBJ File: 'Dice_Set.blend'
# www.blender.org
mtllib LP-D12Collider.mtl
o Dodecahedron_2In
v -0.212220 -0.292095 -0.068954
v 0.000000 -0.292095 -0.223141
v -0.131159 -0.292095 0.180525
v 0.212220 -0.292095 -0.068954
v 0.131159 -0.292095 0.180525
v 0.000000 0.068954 0.361050
v 0.212220 -0.068954 0.292095
v 0.343379 0.068954 0.111571
v 0.000000 -0.068954 -0.361050
v -0.212220 0.068954 -0.292095
v -0.343379 -0.068954 -0.111571
v 0.212220 0.068954 -0.292095
v 0.343379 -0.068954 -0.111571
v -0.343379 0.068954 0.111571
v -0.212220 -0.068954 0.292095
v 0.000000 0.292095 0.223141
v 0.131159 0.292095 -0.180525
v -0.212220 0.292095 0.068954
v -0.131159 0.292095 -0.180525
v 0.212220 0.292095 0.068954
vn 0.0000 -1.0000 0.0000
vn 0.5257 0.4472 0.7236
vn -0.5257 -0.4472 -0.7236
vn 0.5257 -0.4472 -0.7236
vn -0.5257 0.4472 0.7236
vn 0.0000 -0.4472 0.8944
vn 0.0000 0.4472 -0.8944
vn 0.8507 0.4472 -0.2764
vn -0.8507 -0.4472 0.2764
vn -0.8507 0.4472 -0.2764
vn 0.8507 -0.4472 0.2764
vn 0.0000 1.0000 -0.0000
usemtl None
s off
f 1//1 2//1 3//1
f 3//1 2//1 4//1
f 3//1 4//1 5//1
f 16//2 6//2 20//2
f 20//2 6//2 7//2
f 20//2 7//2 8//2
f 9//3 2//3 10//3
f 10//3 2//3 1//3
f 10//3 1//3 11//3
f 9//4 12//4 2//4
f 2//4 12//4 13//4
f 2//4 13//4 4//4
f 14//5 15//5 18//5
f 18//5 15//5 6//5
f 18//5 6//5 16//5
f 5//6 7//6 3//6
f 3//6 7//6 6//6
f 3//6 6//6 15//6
f 17//7 12//7 19//7
f 19//7 12//7 9//7
f 19//7 9//7 10//7
f 20//8 8//8 17//8
f 17//8 8//8 13//8
f 17//8 13//8 12//8
f 11//9 1//9 14//9
f 14//9 1//9 3//9
f 14//9 3//9 15//9
f 18//10 19//10 14//10
f 14//10 19//10 10//10
f 14//10 10//10 11//10
f 5//11 4//11 7//11
f 7//11 4//11 13//11
f 7//11 13//11 8//11
f 19//12 18//12 17//12
f 17//12 18//12 16//12
f 17//12 16//12 20//12
