# Blender v2.80 (sub 75) OBJ File: 'Dice_Set.blend'
# www.blender.org
mtllib D8.mtl
o Octahedron.003
v -0.004083 -0.283530 0.289303
v -0.004083 -0.289303 0.283530
v 0.004082 -0.289303 0.283530
v 0.004082 -0.283530 0.289303
v -0.004928 -0.287014 0.287014
v -0.000000 -0.288531 0.288531
v -0.000000 -0.290499 0.283530
v 0.004928 -0.287014 0.287014
v -0.000000 -0.283530 0.290499
v 0.405054 -0.005774 -0.000000
v 0.405054 -0.000000 -0.005774
v 0.405054 0.005773 0.000000
v 0.405054 -0.000000 0.005774
v 0.405899 -0.003485 -0.003485
v 0.408044 -0.000000 0.000000
v 0.405899 0.003485 -0.003485
v 0.405899 0.003485 0.003485
v 0.405899 -0.003485 0.003485
v -0.004083 0.283530 0.289303
v 0.004082 0.283530 0.289303
v 0.004082 0.289303 0.283530
v -0.004083 0.289303 0.283530
v -0.000000 0.283530 0.290499
v -0.000000 0.288531 0.288531
v 0.004928 0.287014 0.287014
v -0.000000 0.290499 0.283530
v -0.004928 0.287014 0.287014
v -0.405054 0.005773 -0.000000
v -0.405054 -0.000000 -0.005774
v -0.405054 -0.005774 0.000000
v -0.405054 -0.000000 0.005774
v -0.405899 0.003485 -0.003485
v -0.408044 -0.000000 0.000000
v -0.405899 -0.003485 -0.003485
v -0.405899 -0.003485 0.003485
v -0.405899 0.003485 0.003485
v 0.004082 0.289303 -0.283530
v 0.004082 0.283530 -0.289303
v -0.004083 0.283530 -0.289303
v -0.004083 0.289303 -0.283530
v 0.004928 0.287014 -0.287014
v -0.000000 0.288531 -0.288531
v -0.000000 0.283530 -0.290499
v -0.004928 0.287014 -0.287014
v -0.000000 0.290499 -0.283530
v 0.004082 -0.283530 -0.289303
v 0.004082 -0.289303 -0.283530
v -0.004083 -0.289303 -0.283530
v -0.004083 -0.283530 -0.289303
v 0.004928 -0.287014 -0.287014
v -0.000000 -0.288531 -0.288531
v -0.000000 -0.290499 -0.283530
v -0.004928 -0.287014 -0.287014
v -0.000000 -0.283530 -0.290499
vt 0.693821 0.012162
vt 0.532334 0.291864
vt 0.370848 0.012162
vt 0.326695 0.367514
vt 0.165209 0.647216
vt 0.003722 0.367514
vt 0.368693 0.362427
vt 0.691666 0.362427
vt 0.530180 0.642129
vt 0.967971 0.208334
vt 0.806485 0.488037
vt 0.644998 0.208334
vt 0.391154 0.701950
vt 0.714127 0.701950
vt 0.552640 0.981652
vt 0.338801 0.025834
vt 0.177315 0.305536
vt 0.015829 0.025834
vt 0.186306 0.975793
vt 0.024819 0.696090
vt 0.347792 0.696090
vt 0.656128 0.532028
vt 0.653662 0.533452
vt 0.652238 0.530985
vt 0.656128 0.529180
vt 0.693821 0.009314
vt 0.696669 0.009314
vt 0.696287 0.013586
vt 0.013362 0.027258
vt 0.011938 0.024791
vt 0.015829 0.022986
vt 0.326695 0.364666
vt 0.329544 0.364666
vt 0.329161 0.368938
vt 0.179781 0.306960
vt 0.178357 0.309427
vt 0.174849 0.306960
vt 0.808951 0.489461
vt 0.807527 0.491927
vt 0.804018 0.489461
vt 0.188772 0.977217
vt 0.187348 0.979684
vt 0.183839 0.977217
vt 0.167675 0.648640
vt 0.166251 0.651107
vt 0.162743 0.648640
vt 0.979101 0.532028
vt 0.979101 0.529180
vt 0.981949 0.529180
vt 0.981567 0.533452
vt 0.001256 0.368938
vt -0.000168 0.366471
vt 0.003722 0.364666
vt 0.347792 0.693243
vt 0.350640 0.693243
vt 0.350258 0.697514
vt 0.388688 0.703374
vt 0.387264 0.700907
vt 0.391154 0.699102
vt 0.555107 0.983076
vt 0.553683 0.985543
vt 0.550174 0.983076
vt 0.532646 0.643553
vt 0.531222 0.646020
vt 0.527713 0.643553
vt 0.534800 0.293288
vt 0.533376 0.295755
vt 0.529868 0.293288
vt 0.817614 0.811730
vt 0.820081 0.813154
vt 0.818657 0.815621
vt 0.815148 0.813154
vt 0.022353 0.697514
vt 0.020929 0.695047
vt 0.024819 0.693243
vt 0.967971 0.205486
vt 0.970819 0.205486
vt 0.970437 0.209758
vt 0.366227 0.363851
vt 0.364803 0.361384
vt 0.368693 0.359579
vt 0.714127 0.699102
vt 0.716975 0.699102
vt 0.716593 0.703374
vt 0.642532 0.209758
vt 0.641108 0.207291
vt 0.644998 0.205487
vt 0.338801 0.022986
vt 0.341650 0.022986
vt 0.341267 0.027258
vt 0.368382 0.013586
vt 0.366958 0.011119
vt 0.370848 0.009314
vt 0.691666 0.359579
vt 0.694514 0.359579
vt 0.694132 0.363851
vn -0.5774 -0.8165 0.0000
vn 0.5774 -0.0000 0.8165
vn -0.5774 -0.0000 -0.8165
vn 0.5774 -0.0000 -0.8165
vn -0.5774 0.8165 0.0000
vn 0.5774 -0.8165 0.0000
vn 0.5774 0.8165 -0.0000
vn -0.3252 -0.3980 0.8578
vn -0.3252 -0.8578 0.3980
vn 0.3252 -0.8578 0.3979
vn 0.3252 -0.3980 0.8578
vn 0.8880 -0.4599 -0.0000
vn 0.8880 0.0000 -0.4599
vn 0.8880 0.4599 -0.0000
vn 0.8880 0.0000 0.4599
vn -0.3252 0.3980 0.8578
vn 0.3252 0.3980 0.8578
vn 0.3252 0.8578 0.3980
vn -0.3252 0.8578 0.3979
vn -0.8880 0.4599 0.0000
vn -0.8880 -0.0000 -0.4599
vn -0.8880 -0.4599 -0.0000
vn -0.8880 0.0000 0.4599
vn 0.3252 0.8578 -0.3980
vn 0.3252 0.3980 -0.8578
vn -0.3252 0.3980 -0.8578
vn -0.3252 0.8578 -0.3980
vn 0.3252 -0.3980 -0.8578
vn 0.3252 -0.8578 -0.3980
vn -0.3252 -0.8578 -0.3979
vn -0.3252 -0.3980 -0.8578
vn 0.2811 -0.0000 0.9597
vn -0.2811 -0.0000 0.9597
vn 0.6786 -0.6786 0.2811
vn 0.6786 -0.2811 0.6786
vn 0.6786 0.6786 0.2811
vn 0.6786 0.2811 0.6786
vn -0.6786 0.6786 0.2811
vn -0.6786 0.2811 0.6786
vn -0.6786 -0.2811 0.6786
vn -0.6786 -0.6786 0.2811
vn 0.2811 0.9597 -0.0000
vn -0.2811 0.9597 0.0000
vn -0.6786 0.6786 -0.2811
vn -0.6786 0.2811 -0.6786
vn 0.6786 0.2811 -0.6786
vn 0.6786 0.6786 -0.2811
vn 0.2811 -0.0000 -0.9597
vn -0.2811 -0.0000 -0.9597
vn -0.6786 -0.2811 -0.6786
vn -0.6786 -0.6786 -0.2811
vn 0.6786 -0.6786 -0.2811
vn 0.6786 -0.2811 -0.6786
vn -0.2811 -0.9597 -0.0000
vn 0.2811 -0.9597 0.0000
vn -0.5774 -0.0000 0.8165
usemtl Material.003
s off
f 2/1/1 30/2/1 48/3/1
f 4/4/2 13/5/2 20/6/2
f 39/7/3 49/8/3 29/9/3
f 38/10/4 11/11/4 46/12/4
f 22/13/5 40/14/5 28/15/5
f 47/16/6 10/17/6 3/18/6
f 12/19/7 37/20/7 21/21/7
f 1/22/8 5/23/8 6/24/8 9/25/8
f 2/1/9 7/26/9 6/27/9 5/28/9
f 3/18/10 8/29/10 6/30/10 7/31/10
f 4/4/11 9/32/11 6/33/11 8/34/11
f 10/17/12 14/35/12 15/36/12 18/37/12
f 11/11/13 16/38/13 15/39/13 14/40/13
f 12/19/14 17/41/14 15/42/14 16/43/14
f 13/5/15 18/44/15 15/45/15 17/46/15
f 19/47/16 23/48/16 24/49/16 27/50/16
f 20/6/17 25/51/17 24/52/17 23/53/17
f 21/21/18 26/54/18 24/55/18 25/56/18
f 22/13/19 27/57/19 24/58/19 26/59/19
f 28/15/20 32/60/20 33/61/20 36/62/20
f 29/9/21 34/63/21 33/64/21 32/65/21
f 30/2/22 35/66/22 33/67/22 34/68/22
f 31/69/23 36/70/23 33/71/23 35/72/23
f 37/20/24 41/73/24 42/74/24 45/75/24
f 38/10/25 43/76/25 42/77/25 41/78/25
f 39/7/26 44/79/26 42/80/26 43/81/26
f 40/14/27 45/82/27 42/83/27 44/84/27
f 46/12/28 50/85/28 51/86/28 54/87/28
f 47/16/29 52/88/29 51/89/29 50/90/29
f 48/3/30 53/91/30 51/92/30 52/93/30
f 49/8/31 54/94/31 51/95/31 53/96/31
f 4/4/32 20/6/32 23/53/32 9/32/32
f 9/25/33 23/48/33 19/47/33 1/22/33
f 3/18/34 10/17/34 18/37/34 8/29/34
f 8/34/35 18/44/35 13/5/35 4/4/35
f 12/19/36 21/21/36 25/56/36 17/41/36
f 17/46/37 25/51/37 20/6/37 13/5/37
f 22/13/38 28/15/38 36/62/38 27/57/38
f 27/50/39 36/70/39 31/69/39 19/47/39
f 1/22/40 31/69/40 35/72/40 5/23/40
f 5/28/41 35/66/41 30/2/41 2/1/41
f 21/21/42 37/20/42 45/75/42 26/54/42
f 26/59/43 45/82/43 40/14/43 22/13/43
f 28/15/44 40/14/44 44/84/44 32/60/44
f 32/65/45 44/79/45 39/7/45 29/9/45
f 11/11/46 38/10/46 41/78/46 16/38/46
f 16/43/47 41/73/47 37/20/47 12/19/47
f 38/10/48 46/12/48 54/87/48 43/76/48
f 43/81/49 54/94/49 49/8/49 39/7/49
f 29/9/50 49/8/50 53/96/50 34/63/50
f 34/68/51 53/91/51 48/3/51 30/2/51
f 10/17/52 47/16/52 50/90/52 14/35/52
f 14/40/53 50/85/53 46/12/53 11/11/53
f 2/1/54 48/3/54 52/93/54 7/26/54
f 7/31/55 52/88/55 47/16/55 3/18/55
f 19/47/56 31/69/56 1/22/56
