# Blender v2.80 (sub 75) OBJ File: 'Dice_Set.blend'
# www.blender.org
mtllib LP-D10.mtl
o Die_Scaled_D10.001
v -0.465278 0.055120 0.004161
v -0.465274 0.055108 -0.004724
v -0.466158 0.046700 -0.007459
v -0.466707 0.041516 -0.000263
v -0.466164 0.046720 0.006918
v -0.465870 0.055855 -0.000283
v -0.469731 0.049434 -0.000276
v -0.466359 0.051180 -0.006734
v -0.467154 0.043634 -0.004258
v -0.467158 0.043645 0.003725
v -0.466364 0.051198 0.006181
v -0.083915 -0.337184 0.245135
v -0.077707 -0.336224 0.249527
v -0.083366 -0.331923 0.252396
v -0.080922 -0.338046 0.247782
v -0.081961 -0.336521 0.250065
v -0.080595 -0.334914 0.252105
v -0.084332 -0.335006 0.249146
v -0.033822 0.139674 0.400217
v -0.034718 0.131181 0.403004
v -0.028186 0.135189 0.402838
v -0.034886 0.135694 0.402225
v -0.032333 0.135911 0.403707
v -0.031421 0.133194 0.404341
v -0.030888 0.138251 0.402681
v -0.083144 -0.332627 -0.251541
v -0.077488 -0.336920 -0.248655
v -0.083700 -0.337867 -0.244266
v -0.080374 -0.335617 -0.251240
v -0.081742 -0.337219 -0.249196
v -0.080705 -0.338738 -0.246908
v -0.084113 -0.335701 -0.248283
v -0.033470 0.138555 -0.400635
v -0.027832 0.134063 -0.403239
v -0.034363 0.130055 -0.403399
v -0.030534 0.137126 -0.403093
v -0.031978 0.134783 -0.404113
v -0.031065 0.132064 -0.404739
v -0.034532 0.134570 -0.402633
v -0.003541 0.425204 0.003896
v 0.002639 0.425842 -0.000594
v -0.003537 0.425191 -0.005087
v -0.000280 0.426867 0.002078
v -0.001442 0.427193 -0.000597
v -0.000277 0.426859 -0.003271
v -0.004108 0.425908 -0.000597
v 0.034363 -0.130055 0.403399
v 0.027832 -0.134063 0.403239
v 0.033470 -0.138555 0.400635
v 0.031065 -0.132064 0.404739
v 0.031978 -0.134783 0.404113
v 0.030534 -0.137126 0.403093
v 0.034532 -0.134570 0.402633
v 0.003537 -0.425191 0.005087
v -0.002639 -0.425842 0.000594
v 0.003541 -0.425204 -0.003896
v 0.000277 -0.426860 0.003271
v 0.001442 -0.427193 0.000597
v 0.000280 -0.426867 -0.002078
v 0.004108 -0.425908 0.000597
v 0.033822 -0.139674 -0.400217
v 0.028186 -0.135189 -0.402838
v 0.034717 -0.131181 -0.403004
v 0.030888 -0.138251 -0.402681
v 0.032333 -0.135911 -0.403707
v 0.031421 -0.133194 -0.404341
v 0.034886 -0.135694 -0.402225
v 0.083366 0.331923 -0.252396
v 0.077707 0.336224 -0.249527
v 0.083915 0.337184 -0.245135
v 0.080595 0.334914 -0.252105
v 0.081961 0.336521 -0.250065
v 0.080922 0.338046 -0.247782
v 0.084332 0.335006 -0.249146
v 0.083700 0.337867 0.244266
v 0.077488 0.336920 0.248655
v 0.083144 0.332627 0.251541
v 0.080705 0.338738 0.246908
v 0.081742 0.337219 0.249195
v 0.080374 0.335617 0.251240
v 0.084113 0.335701 0.248283
v 0.466158 -0.046700 0.007459
v 0.465274 -0.055108 0.004724
v 0.465278 -0.055120 -0.004161
v 0.466164 -0.046720 -0.006918
v 0.466707 -0.041516 0.000263
v 0.466359 -0.051180 0.006735
v 0.469731 -0.049434 0.000276
v 0.465870 -0.055855 0.000283
v 0.466364 -0.051198 -0.006181
v 0.467158 -0.043645 -0.003725
v 0.467154 -0.043634 0.004258
vt 0.398457 0.078188
vt 0.530674 0.013371
vt 0.662890 0.078186
vt 0.530675 0.369302
vt 0.069578 0.084056
vt 0.201795 0.019240
vt 0.334012 0.084055
vt 0.201796 0.375170
vt 0.494871 0.425164
vt 0.362613 0.489896
vt 0.230437 0.424997
vt 0.362838 0.133966
vt 0.014276 0.910259
vt 0.146677 0.619228
vt 0.278709 0.910427
vt 0.146452 0.975159
vt 0.431600 0.567165
vt 0.299199 0.858196
vt 0.167167 0.566998
vt 0.299424 0.502266
vt 0.319801 0.910748
vt 0.452201 0.619716
vt 0.584234 0.910915
vt 0.451976 0.975647
vt 0.675451 0.905592
vt 0.807852 0.614561
vt 0.939885 0.905760
vt 0.807627 0.970491
vt 0.769115 0.582418
vt 0.636714 0.873449
vt 0.504682 0.582250
vt 0.636939 0.517518
vt 0.716696 0.088121
vt 0.848954 0.023389
vt 0.981130 0.088288
vt 0.848729 0.379319
vt 0.360379 0.132847
vt 0.361951 0.129391
vt 0.365299 0.132850
vt 0.204256 0.376288
vt 0.202686 0.379745
vt 0.199336 0.376288
vt 0.533135 0.370419
vt 0.531565 0.373876
vt 0.528215 0.370419
vt 0.851188 0.380438
vt 0.849616 0.383894
vt 0.846268 0.380435
vt 0.692107 0.132805
vt 0.689647 0.131688
vt 0.691217 0.128230
vt 0.694566 0.131688
vt 0.982903 0.086149
vt 0.984287 0.086829
vt 0.983588 0.089408
vt 0.148223 0.977299
vt 0.146838 0.977977
vt 0.144677 0.977297
vt 0.824324 0.423919
vt 0.826784 0.422801
vt 0.827428 0.424220
vt 0.826096 0.426060
vt 0.497330 0.424048
vt 0.497974 0.425467
vt 0.496641 0.427306
vt 0.559891 0.423920
vt 0.558120 0.426061
vt 0.556735 0.425382
vt 0.557432 0.422802
vt 0.297653 0.500126
vt 0.299038 0.499448
vt 0.301199 0.500128
vt 0.664662 0.076046
vt 0.666047 0.076725
vt 0.665350 0.079305
vt 0.635168 0.515378
vt 0.636553 0.514700
vt 0.638713 0.515381
vt 0.714237 0.089238
vt 0.713593 0.087818
vt 0.714926 0.085979
vt 0.335783 0.081915
vt 0.337168 0.082594
vt 0.336471 0.085173
vt 0.453748 0.977787
vt 0.452363 0.978465
vt 0.450202 0.977785
vt 0.395998 0.079306
vt 0.395354 0.077887
vt 0.396686 0.076047
vt 0.228664 0.427137
vt 0.227280 0.426457
vt 0.227979 0.423877
vt 0.809398 0.972632
vt 0.808013 0.973310
vt 0.805853 0.972629
vt 0.067119 0.085174
vt 0.066475 0.083756
vt 0.067807 0.081916
vt 0.433373 0.565026
vt 0.434757 0.565705
vt 0.434059 0.568285
vt 0.692108 0.488735
vt 0.693881 0.490874
vt 0.692496 0.491553
vt 0.690335 0.490874
vt 0.281169 0.909310
vt 0.281813 0.910729
vt 0.280479 0.912568
vt 0.012503 0.912399
vt 0.011119 0.911719
vt 0.011817 0.909140
vt 0.847183 0.021249
vt 0.848568 0.020571
vt 0.850728 0.021251
vt 0.502222 0.583367
vt 0.501578 0.581948
vt 0.502911 0.580109
vt 0.770888 0.580278
vt 0.772272 0.580958
vt 0.771573 0.583537
vt 0.528901 0.011232
vt 0.530286 0.010554
vt 0.532447 0.011232
vt 0.586694 0.909798
vt 0.587337 0.911217
vt 0.586004 0.913056
vt 0.318028 0.912887
vt 0.316643 0.912207
vt 0.317342 0.909628
vt 0.200022 0.017101
vt 0.201407 0.016422
vt 0.203567 0.017101
vt 0.942345 0.904643
vt 0.942988 0.906062
vt 0.941655 0.907901
vt 0.673678 0.907732
vt 0.672294 0.907052
vt 0.672993 0.904473
vt 0.364384 0.492036
vt 0.362999 0.492714
vt 0.360839 0.492034
vt 0.164707 0.568114
vt 0.164063 0.566695
vt 0.165397 0.564856
vt 0.301658 0.859315
vt 0.300086 0.862771
vt 0.296739 0.859312
vt 0.144218 0.618110
vt 0.145790 0.614653
vt 0.149137 0.618113
vt 0.639173 0.874567
vt 0.637601 0.878024
vt 0.634254 0.874564
vt 0.449742 0.618598
vt 0.451315 0.615141
vt 0.454662 0.618601
vt 0.805393 0.613442
vt 0.806966 0.609986
vt 0.810313 0.613446
vn -0.6532 -0.1731 -0.7371
vn -0.5627 0.6891 -0.4567
vn -0.5631 0.6903 0.4543
vn 0.5627 -0.6891 0.4567
vn 0.6532 0.1731 0.7371
vn 0.6539 0.1710 -0.7370
vn 0.7096 0.7046 -0.0007
vn 0.5631 -0.6903 -0.4543
vn -0.7096 -0.7046 0.0007
vn -0.8487 0.4578 0.2650
vn -0.8484 0.4570 -0.2670
vn -0.9013 -0.0463 -0.4307
vn -0.9342 -0.3567 0.0001
vn -0.9017 -0.0451 0.4300
vn -0.5546 -0.7669 0.3229
vn 0.1291 -0.8076 0.5754
vn -0.5275 -0.5067 0.6819
vn -0.4192 0.5227 0.7423
vn -0.4635 0.1029 0.8801
vn 0.2433 0.2792 0.9289
vn -0.5269 -0.5087 -0.6809
vn 0.1296 -0.8092 -0.5731
vn -0.5544 -0.7678 -0.3213
vn -0.4185 0.5206 -0.7441
vn 0.2441 0.2766 -0.9295
vn -0.4627 0.1004 -0.8808
vn -0.3793 0.8986 0.2206
vn 0.3143 0.9493 -0.0012
vn -0.3791 0.8980 -0.2235
vn 0.4627 -0.1004 0.8808
vn -0.2441 -0.2766 0.9295
vn 0.4185 -0.5206 0.7442
vn 0.3791 -0.8980 0.2235
vn -0.3143 -0.9493 0.0012
vn 0.3793 -0.8986 -0.2206
vn 0.4192 -0.5227 -0.7423
vn -0.2433 -0.2792 -0.9289
vn 0.4635 -0.1029 -0.8801
vn 0.5275 0.5067 -0.6819
vn -0.1291 0.8076 -0.5755
vn 0.5546 0.7669 -0.3229
vn 0.5544 0.7678 0.3213
vn -0.1296 0.8092 0.5731
vn 0.5269 0.5087 0.6809
vn 0.9013 0.0463 0.4307
vn 0.8484 -0.4570 0.2670
vn 0.8487 -0.4578 -0.2650
vn 0.9017 0.0451 -0.4300
vn 0.9342 0.3567 -0.0001
vn -0.6832 0.0941 0.7242
vn -0.6425 0.4795 0.5977
vn -0.7566 -0.6064 0.2445
vn -0.7317 -0.3677 0.5740
vn -0.7312 -0.3693 -0.5736
vn -0.7564 -0.6071 -0.2435
vn -0.6420 0.4778 -0.5996
vn -0.6825 0.0921 -0.7250
vn -0.6123 0.7642 0.2025
vn -0.6122 0.7636 -0.2052
vn -0.3542 -0.0824 0.9315
vn 0.3534 0.0850 0.9316
vn 0.2734 -0.6763 0.6841
vn -0.3887 -0.4108 0.8247
vn -0.4379 -0.8819 0.1746
vn 0.2522 -0.8795 0.4036
vn 0.2525 -0.8806 -0.4009
vn -0.4377 -0.8824 -0.1725
vn -0.3880 -0.4131 -0.8239
vn 0.2740 -0.6782 -0.6819
vn 0.3542 0.0824 -0.9315
vn -0.3534 -0.0850 -0.9316
vn -0.2734 0.6763 -0.6841
vn 0.3887 0.4108 -0.8247
vn 0.4379 0.8819 -0.1746
vn -0.2522 0.8795 -0.4036
vn -0.2525 0.8806 0.4009
vn 0.4377 0.8824 0.1725
vn 0.3880 0.4131 0.8239
vn -0.2740 0.6782 0.6819
vn 0.6420 -0.4778 0.5996
vn 0.6825 -0.0921 0.7250
vn 0.6123 -0.7642 -0.2025
vn 0.6122 -0.7636 0.2052
vn 0.6832 -0.0941 -0.7242
vn 0.6425 -0.4795 -0.5977
vn 0.7566 0.6064 -0.2445
vn 0.7317 0.3677 -0.5740
vn 0.7312 0.3693 0.5736
vn 0.7564 0.6071 0.2435
vn -0.6539 -0.1710 0.7370
usemtl Material.005
s off
f 35/1/1 62/2/1 26/3/1 3/4/1
f 42/5/2 69/6/2 33/7/2 2/8/2
f 19/9/3 76/10/3 40/11/3 1/12/3
f 54/13/4 83/14/4 49/15/4 13/16/4
f 47/17/5 82/18/5 77/19/5 21/20/5
f 68/21/6 85/22/6 63/23/6 34/24/6
f 75/25/7 86/26/7 70/27/7 41/28/7
f 61/29/8 84/30/8 56/31/8 27/32/8
f 28/33/9 55/34/9 12/35/9 4/36/9
f 1/12/10 6/37/10 7/38/10 11/39/10
f 2/8/11 8/40/11 7/41/11 6/42/11
f 3/4/12 9/43/12 7/44/12 8/45/12
f 4/36/13 10/46/13 7/47/13 9/48/13
f 5/49/14 11/50/14 7/51/14 10/52/14
f 12/35/15 15/53/15 16/54/15 18/55/15
f 13/16/16 17/56/16 16/57/16 15/58/16
f 14/59/17 18/60/17 16/61/17 17/62/17
f 19/9/18 22/63/18 23/64/18 25/65/18
f 20/66/19 24/67/19 23/68/19 22/69/19
f 21/20/20 25/70/20 23/71/20 24/72/20
f 26/3/21 29/73/21 30/74/21 32/75/21
f 27/32/22 31/76/22 30/77/22 29/78/22
f 28/33/23 32/79/23 30/80/23 31/81/23
f 33/7/24 36/82/24 37/83/24 39/84/24
f 34/24/25 38/85/25 37/86/25 36/87/25
f 35/1/26 39/88/26 37/89/26 38/90/26
f 40/11/27 43/91/27 44/92/27 46/93/27
f 41/28/28 45/94/28 44/95/28 43/96/28
f 42/5/29 46/97/29 44/98/29 45/99/29
f 47/17/30 50/100/30 51/101/30 53/102/30
f 48/103/31 52/104/31 51/105/31 50/106/31
f 49/15/32 53/107/32 51/108/32 52/109/32
f 54/13/33 57/110/33 58/111/33 60/112/33
f 55/34/34 59/113/34 58/114/34 57/115/34
f 56/31/35 60/116/35 58/117/35 59/118/35
f 61/29/36 64/119/36 65/120/36 67/121/36
f 62/2/37 66/122/37 65/123/37 64/124/37
f 63/23/38 67/125/38 65/126/38 66/127/38
f 68/21/39 71/128/39 72/129/39 74/130/39
f 69/6/40 73/131/40 72/132/40 71/133/40
f 70/27/41 74/134/41 72/135/41 73/136/41
f 75/25/42 78/137/42 79/138/42 81/139/42
f 76/10/43 80/140/43 79/141/43 78/142/43
f 77/19/44 81/143/44 79/144/44 80/145/44
f 82/18/45 87/146/45 88/147/45 92/148/45
f 83/14/46 89/149/46 88/150/46 87/151/46
f 84/30/47 90/152/47 88/153/47 89/154/47
f 85/22/48 91/155/48 88/156/48 90/157/48
f 86/26/49 92/158/49 88/159/49 91/160/49
f 5/49/50 20/66/50 22/69/50 11/50/50
f 11/39/51 22/63/51 19/9/51 1/12/51
f 4/36/52 12/35/52 18/55/52 10/46/52
f 10/52/53 18/60/53 14/59/53 5/49/53
f 3/4/54 26/3/54 32/75/54 9/43/54
f 9/48/55 32/79/55 28/33/55 4/36/55
f 2/8/56 33/7/56 39/84/56 8/40/56
f 8/45/57 39/88/57 35/1/57 3/4/57
f 1/12/58 40/11/58 46/93/58 6/37/58
f 6/42/59 46/97/59 42/5/59 2/8/59
f 20/66/60 48/103/60 50/106/60 24/67/60
f 24/72/61 50/100/61 47/17/61 21/20/61
f 13/16/62 49/15/62 52/109/62 17/56/62
f 17/62/63 52/104/63 48/103/63 14/59/63
f 12/35/64 55/34/64 57/115/64 15/53/64
f 15/58/65 57/110/65 54/13/65 13/16/65
f 27/32/66 56/31/66 59/118/66 31/76/66
f 31/81/67 59/113/67 55/34/67 28/33/67
f 26/3/68 62/2/68 64/124/68 29/73/68
f 29/78/69 64/119/69 61/29/69 27/32/69
f 34/24/70 63/23/70 66/127/70 38/85/70
f 38/90/71 66/122/71 62/2/71 35/1/71
f 33/7/72 69/6/72 71/133/72 36/82/72
f 36/87/73 71/128/73 68/21/73 34/24/73
f 41/28/74 70/27/74 73/136/74 45/94/74
f 45/99/75 73/131/75 69/6/75 42/5/75
f 40/11/76 76/10/76 78/142/76 43/91/76
f 43/96/77 78/137/77 75/25/77 41/28/77
f 21/20/78 77/19/78 80/145/78 25/70/78
f 25/65/79 80/140/79 76/10/79 19/9/79
f 49/15/80 83/14/80 87/151/80 53/107/80
f 53/102/81 87/146/81 82/18/81 47/17/81
f 56/31/82 84/30/82 89/154/82 60/116/82
f 60/112/83 89/149/83 83/14/83 54/13/83
f 63/23/84 85/22/84 90/157/84 67/125/84
f 67/121/85 90/152/85 84/30/85 61/29/85
f 70/27/86 86/26/86 91/160/86 74/134/86
f 74/130/87 91/155/87 85/22/87 68/21/87
f 77/19/88 82/18/88 92/148/88 81/143/88
f 81/139/89 92/158/89 86/26/89 75/25/89
f 14/59/90 48/103/90 20/66/90 5/49/90
