# Blender v2.80 (sub 75) OBJ File: 'Dice_Set.blend'
# www.blender.org
mtllib D4.mtl
o Triangular_Pyramid_2In.003
v -0.349082 -0.141334 0.204876
v -0.351969 -0.141334 0.199876
v -0.349082 -0.146048 0.201543
v -0.351721 -0.140357 0.203066
v -0.352365 -0.143853 0.203438
v -0.351721 -0.144667 0.200019
v -0.349082 -0.144667 0.204590
v -0.002887 -0.141334 -0.404752
v 0.002887 -0.141334 -0.404752
v 0.000000 -0.146048 -0.403085
v 0.000000 -0.140357 -0.406133
v -0.000000 -0.143853 -0.406876
v 0.002639 -0.144667 -0.404609
v -0.002639 -0.144667 -0.404609
v 0.349082 -0.141334 0.204876
v 0.349082 -0.146048 0.201543
v 0.351969 -0.141334 0.199876
v 0.349082 -0.144667 0.204590
v 0.352365 -0.143853 0.203438
v 0.351721 -0.144667 0.200019
v 0.351721 -0.140357 0.203066
v 0.002887 0.428715 -0.001667
v -0.002887 0.428715 -0.001667
v -0.000000 0.428715 0.003333
v 0.000000 0.429691 -0.003047
v 0.000000 0.431558 -0.000000
v -0.002639 0.429691 0.001524
v 0.002639 0.429691 0.001524
vt 0.736215 0.867761
vt 0.492448 0.445545
vt 0.979981 0.445545
vt 0.016476 0.558710
vt 0.504009 0.558710
vt 0.260243 0.980925
vt 0.492448 0.012483
vt 0.979981 0.012483
vt 0.736215 0.434699
vt 0.504009 0.125647
vt 0.504009 0.122155
vt 0.506302 0.122155
vt 0.507033 0.127393
vt 0.489425 0.447291
vt 0.488278 0.445305
vt 0.492448 0.442054
vt 0.489425 0.014228
vt 0.488278 0.012243
vt 0.492448 0.008991
vt 0.739239 0.869507
vt 0.738092 0.871492
vt 0.733191 0.869507
vt 0.504009 0.555218
vt 0.506302 0.555218
vt 0.507033 0.560455
vt 0.979981 0.008991
vt 0.982274 0.008991
vt 0.983005 0.014228
vt 0.260243 0.547863
vt 0.263267 0.549609
vt 0.262120 0.551594
vt 0.257219 0.549609
vt 0.739239 0.436444
vt 0.738092 0.438430
vt 0.733191 0.436444
vt 0.013453 0.560455
vt 0.012306 0.558470
vt 0.016477 0.555218
vt 0.263267 0.982671
vt 0.262120 0.984657
vt 0.257219 0.982671
vt 0.979981 0.442054
vt 0.982274 0.442054
vt 0.983005 0.447291
vt 0.016476 0.125647
vt 0.013453 0.127393
vt 0.012306 0.125407
vt 0.016476 0.122155
vn -0.8165 0.3333 -0.4714
vn 0.8165 0.3333 -0.4714
vn 0.0000 -1.0000 0.0000
vn -0.4339 0.0523 0.8994
vn -0.9959 0.0523 -0.0739
vn -0.4339 -0.8654 0.2505
vn -0.5620 0.0523 -0.8255
vn 0.5620 0.0523 -0.8255
vn 0.0000 -0.8654 -0.5011
vn 0.4339 0.0523 0.8994
vn 0.4339 -0.8654 0.2505
vn 0.9959 0.0523 -0.0739
vn 0.5620 0.7609 -0.3244
vn -0.5620 0.7609 -0.3244
vn -0.0000 0.7609 0.6489
vn 0.0000 -0.9109 0.4127
vn 0.0000 -0.0855 0.9963
vn -0.8629 -0.0855 -0.4982
vn -0.3574 -0.9109 -0.2064
vn 0.8629 -0.0855 -0.4982
vn 0.3574 -0.9109 -0.2063
vn -0.5054 0.4982 -0.7045
vn 0.5054 0.4982 -0.7045
vn -0.3574 0.4982 0.7900
vn -0.8629 0.4982 -0.0855
vn 0.8629 0.4982 -0.0855
vn 0.3574 0.4982 0.7900
vn 0.0000 0.3333 0.9428
usemtl Material.004
s off
f 8/1/1 2/2/1 23/3/1
f 17/4/2 9/5/2 22/6/2
f 3/7/3 10/8/3 16/9/3
f 1/10/4 4/11/4 5/12/4 7/13/4
f 2/2/5 6/14/5 5/15/5 4/16/5
f 3/7/6 7/17/6 5/18/6 6/19/6
f 8/1/7 11/20/7 12/21/7 14/22/7
f 9/5/8 13/23/8 12/24/8 11/25/8
f 10/8/9 14/26/9 12/27/9 13/28/9
f 15/29/10 18/30/10 19/31/10 21/32/10
f 16/9/11 20/33/11 19/34/11 18/35/11
f 17/4/12 21/36/12 19/37/12 20/38/12
f 22/6/13 25/39/13 26/40/13 28/41/13
f 23/3/14 27/42/14 26/43/14 25/44/14
f 24/45/15 28/46/15 26/47/15 27/48/15
f 3/7/16 16/9/16 18/35/16 7/17/16
f 7/13/17 18/30/17 15/29/17 1/10/17
f 2/2/18 8/1/18 14/22/18 6/14/18
f 6/19/19 14/26/19 10/8/19 3/7/19
f 9/5/20 17/4/20 20/38/20 13/23/20
f 13/28/21 20/33/21 16/9/21 10/8/21
f 8/1/22 23/3/22 25/44/22 11/20/22
f 11/25/23 25/39/23 22/6/23 9/5/23
f 1/10/24 24/45/24 27/48/24 4/11/24
f 4/16/25 27/42/25 23/3/25 2/2/25
f 17/4/26 22/6/26 28/41/26 21/36/26
f 21/32/27 28/46/27 24/45/27 15/29/27
f 1/10/28 15/29/28 24/45/28
